{"title":"The Karate Kid-720p MP4 AAC x264 BRRip 1984-CC","uid":7253082,"size":2293243062,"categoryP":"video","categoryS":"hd___movies","magnet":"?xt=urn:btih:78f75820e169b43c29c88c1ae3580b05c91ba738&amp;dn=The+Karate+Kid-720p+MP4+AAC+x264+BRRip+1984-CC&amp;tr=udp%3A%2F%2Ftracker.openbittorrent.com%3A80&amp;tr=udp%3A%2F%2Fopen.demonii.com%3A1337&amp;tr=udp%3A%2F%2Ftracker.coppersurfer.tk%3A6969&amp;tr=udp%3A%2F%2Fexodus.desync.com%3A6969","seeders":1,"leechers":1,"uploader":"Caveman44","files":-1,"time":1336504924,"description":"Source: The Karate Kid 1984 720p BluRay x264-MELiTE\n\nSubs: Arabic, Brazilian, Danish, Dutch, English, French, Servian, Slovenian, Spanish and Swedish.\n\nSample and Screens included.\n\nGeneral\nComplete name                    : The Karate Kid-720p MP4 AAC x264 BRRip 1984-CC.mp4\nFormat                           : MPEG-4\nFormat profile                   : Base Media\nCodec ID                         : isom\nFile size                        : 2.11 GiB\nDuration                         : 2h 6mn\nOverall bit rate                 : 2 379 Kbps\nEncoded date                     : UTC 2012-05-05 08:54:15\n\nVideo\nID                               : 1\nFormat                           : AVC\nFormat/Info                      : Advanced Video Codec\nFormat profile                   : &lt;a class=&quot;__cf_email__&quot; href=&quot;/cdn-cgi/l/email-protection&quot; data-cfemail=&quot;ace4c5cbc4ece09f829d&quot;&gt;[email&amp;#160;protected]&lt;/a&gt;&lt;script cf-hash='f9e31' type=&quot;text/javascript&quot;&gt;\n/* &lt;![CDATA[ */!function(){try{var t=&quot;currentScript&quot;in document?document.currentScript:function(){for(var t=document.getElementsByTagName(&quot;script&quot;),e=t.length;e--;)if(t[e].getAttribute(&quot;cf-hash&quot;))return t[e]}();if(t&amp;&amp;t.previousSibling){var e,r,n,i,c=t.previousSibling,a=c.getAttribute(&quot;data-cfemail&quot;);if(a){for(e=&quot;&quot;,r=parseInt(a.substr(0,2),16),n=2;a.length-n;n+=2)i=parseInt(a.substr(n,2),16)^r,e+=String.fromCharCode(i);e=document.createTextNode(e),c.parentNode.replaceChild(e,c)}}}catch(u){}}();/* ]]&gt; */&lt;/script&gt;\nFormat settings, CABAC           : Yes\nFormat settings, ReFrames        : 5 frames\nCodec ID                         : avc1\nCodec ID/Info                    : Advanced Video Coding\nDuration                         : 2h 6mn\nBit rate mode                    : Variable\nBit rate                         : 1 990 Kbps\nNominal bit rate                 : 2 024 Kbps\nMaximum bit rate                 : 13.4 Mbps\nWidth                            : 1 280 pixels\nHeight                           : 688 pixels\nDisplay aspect ratio             : 1.860\nFrame rate mode                  : Variable\nFrame rate                       : 23.976 fps\nMinimum frame rate               : 19.048 fps\nMaximum frame rate               : 24.390 fps\nResolution                       : 24 bits\nColorimetry                      : 4:2:0\nScan type                        : Progressive\nBits/(Pixel*Frame)               : 0.094\nStream size                      : 1.76 GiB (84%)\nWriting library                  : x264 core 112\n\nAudio\nID                               : 2\nFormat                           : AAC\nFormat/Info                      : Advanced Audio Codec\nFormat version                   : Version 4\nFormat profile                   : LC\nFormat settings, SBR             : No\nCodec ID                         : 40\nDuration                         : 2h 6mn\nBit rate mode                    : Variable\nBit rate                         : 384 Kbps\nMaximum bit rate                 : 641 Kbps\nChannel(s)                       : 6 channels\nChannel positions                : Front: L C R, Rear: L R, LFE\nSampling rate                    : 48.0 KHz\nResolution                       : 16 bits\nStream size                      : 349 MiB (16%)\nLanguage                         : English\n\nEnjoy...\n\nRequested by eidref.","torrent":{"xt":"urn:btih:78f75820e169b43c29c88c1ae3580b05c91ba738","amp;dn":"The+Karate+Kid-720p+MP4+AAC+x264+BRRip+1984-CC","amp;tr":["udp%3A%2F%2Ftracker.openbittorrent.com%3A80","udp%3A%2F%2Fopen.demonii.com%3A1337","udp%3A%2F%2Ftracker.coppersurfer.tk%3A6969","udp%3A%2F%2Fexodus.desync.com%3A6969"],"infoHash":"78f75820e169b43c29c88c1ae3580b05c91ba738","infoHashBuffer":{"type":"Buffer","data":[120,247,88,32,225,105,180,60,41,200,140,26,227,88,11,5,201,27,167,56]},"announce":[],"urlList":[]}}